<svg width="28" height="25" viewBox="0 0 28 25" fill="none" xmlns="http://www.w3.org/2000/svg">
<path d="M22.3052 8.19452C22.0195 8.09909 21.7336 8.00896 21.4473 7.92413C21.495 7.72531 21.5377 7.53245 21.5795 7.33662C22.2306 4.18036 21.8022 1.64441 20.3558 0.807383C18.964 0.012105 16.6915 0.839195 14.3912 2.84131C14.1635 3.04013 13.9408 3.23895 13.7291 3.45069C13.586 3.3135 13.4378 3.17532 13.2897 3.04311C10.883 0.902817 8.46834 0.00216424 7.01894 0.844165C5.63516 1.64839 5.22161 4.03422 5.80415 7.02447C5.86281 7.3227 5.92643 7.61198 6.00297 7.90922C5.66399 8.00863 5.32997 8.10804 5.01782 8.22137C2.18763 9.20353 0.159668 10.7464 0.159668 12.3459C0.159668 13.9981 2.31984 15.6552 5.25939 16.6593C5.49797 16.7388 5.73556 16.8183 5.97912 16.8869C5.89959 17.205 5.831 17.5172 5.76737 17.8403C5.21167 20.7788 5.6451 23.109 7.03286 23.9043C8.46237 24.7303 10.8671 23.8834 13.2072 21.8335C13.3921 21.6695 13.578 21.4995 13.7629 21.3196C13.9955 21.5472 14.2391 21.764 14.4826 21.9767C16.7492 23.9251 18.9889 24.7144 20.3707 23.9152C21.8002 23.0891 22.2664 20.584 21.663 17.5341C21.6153 17.3008 21.5623 17.0625 21.5039 16.8193C21.6729 16.7716 21.838 16.7199 22.001 16.6662C25.0568 15.6552 27.2697 14.0189 27.2697 12.3399C27.2697 10.7354 25.1821 9.17868 22.2992 8.18856L22.3052 8.19452ZM15.1407 3.69822C17.111 1.98241 18.9481 1.31239 19.7851 1.79154C20.6798 2.30549 21.0238 4.3762 20.4631 7.10798C20.4263 7.28791 20.3886 7.46287 20.3408 7.63783C19.1667 7.37168 17.9761 7.18404 16.777 7.07616C16.0892 6.08908 15.3356 5.14952 14.5214 4.26386C14.7282 4.06504 14.929 3.88213 15.1407 3.69723V3.69822ZM9.0131 15.0946C9.2835 15.5548 9.55886 16.0161 9.85013 16.4664C9.02466 16.3765 8.20442 16.2438 7.39272 16.0688C7.64031 15.2693 7.92831 14.483 8.2556 13.7128C8.50015 14.174 8.74867 14.6393 9.0131 15.0946ZM7.40863 8.72338C8.1711 8.55439 8.98129 8.41621 9.82329 8.31083C9.54296 8.75023 9.26759 9.20055 9.00813 9.65585C8.74867 10.1111 8.49418 10.5664 8.25659 11.0327C7.92258 10.2434 7.64224 9.47095 7.40962 8.72338H7.40863ZM8.86001 12.3717C9.20993 11.6411 9.59067 10.9263 9.99328 10.2215C10.3959 9.51667 10.8303 8.82975 11.2856 8.16172C12.0809 8.10307 12.8901 8.07126 13.7162 8.07126C14.5423 8.07126 15.3574 8.10307 16.1467 8.16172C16.5967 8.82909 17.0255 9.51203 17.4331 10.2106C17.8407 10.9091 18.2237 11.6222 18.5823 12.3499C18.2277 13.0789 17.8463 13.7989 17.4381 14.51C17.0404 15.2138 16.607 15.9018 16.1567 16.5748C15.3674 16.6334 14.5472 16.6593 13.7152 16.6593C12.8831 16.6593 12.0789 16.6324 11.3005 16.5847C10.8366 15.912 10.4025 15.2238 9.99825 14.52C9.59067 13.8161 9.2149 13.1004 8.86001 12.3697V12.3717ZM18.4232 15.0826C18.6936 14.6164 18.9471 14.1452 19.1966 13.669C19.5346 14.4353 19.8333 15.2183 20.0913 16.0151C19.2712 16.2011 18.4415 16.3424 17.6061 16.4386C17.8884 15.9942 18.1588 15.5389 18.4232 15.0836V15.0826ZM19.1857 11.0317C18.9372 10.5654 18.6827 10.0992 18.4183 9.63994C18.1538 9.18067 17.8884 8.74525 17.6081 8.30586C18.426 8.40744 19.2382 8.55044 20.0416 8.73432C19.7976 9.51479 19.5129 10.282 19.1887 11.0327L19.1857 11.0317ZM13.7261 5.07505C14.2818 5.67886 14.8051 6.31166 15.2938 6.97079C14.245 6.92307 13.1913 6.92307 12.1435 6.97079C12.6624 6.28784 13.1973 5.65262 13.7261 5.07505ZM7.58359 1.82932C8.47331 1.3104 10.4486 2.05199 12.5292 3.89406C12.6614 4.01037 12.7937 4.13761 12.9269 4.26486C12.1075 5.1503 11.3486 6.08986 10.6554 7.07716C9.45844 7.18394 8.26968 7.3679 7.09648 7.62789C7.02789 7.35749 6.96924 7.08213 6.91158 6.80676C6.41453 4.24398 6.74258 2.31145 7.57862 1.82932H7.58359ZM6.28629 15.7874C6.06361 15.7238 5.8469 15.6552 5.62919 15.5807C4.42988 15.2272 3.30104 14.6682 2.293 13.9285C2.02881 13.7455 1.80449 13.5108 1.63362 13.2386C1.46275 12.9664 1.34888 12.6624 1.2989 12.3449C1.2989 11.3756 2.97197 10.137 5.38663 9.29499C5.68486 9.18862 5.99602 9.09617 6.30319 9.00372C6.66316 10.153 7.09648 11.278 7.60049 12.3717C7.09081 13.4814 6.65187 14.6223 6.28629 15.7874ZM12.4606 20.9766C11.5889 21.7764 10.5782 22.4098 9.47834 22.8455C9.18821 22.9846 8.87255 23.0625 8.55103 23.0743C8.2295 23.0861 7.90898 23.0316 7.60944 22.9141C6.76744 22.427 6.41652 20.5581 6.89468 18.0431C6.95333 17.7448 7.01695 17.4466 7.0935 17.1583C8.27876 17.4134 9.48014 17.5867 10.6892 17.6772C11.3891 18.6686 12.1528 19.6133 12.9756 20.5054C12.7996 20.6705 12.6306 20.8295 12.4606 20.9776V20.9766ZM13.7579 19.6903C13.2181 19.1077 12.6773 18.4616 12.1535 17.7677C12.6614 17.7886 13.1863 17.7995 13.7152 17.7995C14.2609 17.7995 14.7958 17.7886 15.3246 17.7627C14.8374 18.4332 14.3141 19.0767 13.7569 19.6903H13.7579ZM20.6788 21.2808C20.6544 21.6022 20.5643 21.9151 20.414 22.2001C20.2637 22.4852 20.0564 22.7363 19.805 22.938C18.963 23.4251 17.1677 22.7899 15.2322 21.1267C15.0095 20.9359 14.7878 20.7291 14.5592 20.5174C15.3685 19.6239 16.1152 18.6756 16.7939 17.6792C18.0093 17.5786 19.2161 17.3929 20.4055 17.1235C20.4581 17.3402 20.5049 17.5579 20.5486 17.7697C20.8065 18.9215 20.851 20.1109 20.6798 21.2788L20.6788 21.2808ZM21.6421 15.5886C21.494 15.6363 21.3439 15.688 21.1918 15.7258C20.8186 14.57 20.3676 13.4408 19.8418 12.3459C20.3466 11.2655 20.7787 10.1526 21.1351 9.01466C21.4105 9.09418 21.6749 9.17868 21.9304 9.26318C24.3978 10.1102 26.1295 11.3707 26.1295 12.3349C26.1295 13.3728 24.2815 14.7128 21.6391 15.5866L21.6421 15.5886ZM13.7152 14.7933C14.1949 14.7933 14.6639 14.6511 15.0628 14.3846C15.4617 14.118 15.7726 13.7392 15.9561 13.296C16.1397 12.8528 16.1878 12.3651 16.0942 11.8945C16.0006 11.424 15.7696 10.9918 15.4303 10.6526C15.0911 10.3134 14.6589 10.0823 14.1884 9.98876C13.7179 9.89516 13.2302 9.9432 12.7869 10.1268C12.3437 10.3104 11.9649 10.6213 11.6984 11.0202C11.4318 11.419 11.2896 11.888 11.2896 12.3677C11.2896 12.6863 11.3524 13.0018 11.4743 13.2961C11.5963 13.5904 11.7751 13.8577 12.0004 14.0829C12.2258 14.3081 12.4933 14.4866 12.7877 14.6084C13.0821 14.7301 13.3976 14.7926 13.7162 14.7924L13.7152 14.7933Z" fill="#00FAFD"/>
</svg>
